Percy Jackson And The Olympians The Lightning Thief 2010 BRRip H264 LKRG


percy.jackson.2010.lkrg.mp4

File Size

Format                           : MPEG-4
Format profile                   : Base Media
Codec ID                         : isom
File size                        : 3.00 GiB
Duration                         : 1h 58mn
Overall bit rate                 : 3 622 Kbps

Video
ID                               : 1
Format                           : AVC
Format/Info                      : Advanced Video Codec
Format profile                   : High@L4.1
Format settings, CABAC           : Yes
Format settings, ReFrames        : 3 frames
Codec ID                         : avc1
Codec ID/Info                    : Advanced Video Coding
Duration                         : 1h 58mn
Bit rate mode                    : Variable
Bit rate                         : 3 042 Kbps
Maximum bit rate                 : 13.0 Mbps
Width                            : 1 280 pixels
Height                           : 544 pixels
Display aspect ratio             : 2.35:1
Frame rate mode                  : Constant
Frame rate                       : 23.976 fps
Resolution                       : 24 bits
Colorimetry                      : 4:2:0
Scan type                        : Progressive
Bits/(Pixel*Frame)               : 0.182
Stream size                      : 2.52 GiB (84%)

Audio #1
ID                               : 2
Format                           : AAC
Format/Info                      : Advanced Audio Codec
Format version                   : Version 4
Format profile                   : LC
Format settings, SBR             : No
Codec ID                         : 40
Duration                         : 1h 58mn
Bit rate mode                    : Variable
Bit rate                         : 128 Kbps
Maximum bit rate                 : 137 Kbps
Channel(s)                       : 2 channels
Channel positions                : L R
Sampling rate                    : 48.0 KHz
Resolution                       : 16 bits
Stream size                      : 109 MiB (4%)

Audio #2
ID                               : 3
Format                           : AAC
Format/Info                      : Advanced Audio Codec
Format version                   : Version 4
Format profile                   : LC
Format settings, SBR             : No
Codec ID                         : 40
Duration                         : 1h 58mn
Bit rate mode                    : Variable
Bit rate                         : 448 Kbps
Maximum bit rate                 : 465 Kbps
Channel(s)                       : 6 channels
Channel positions                : Front: L C R, Rear: L R, LFE
Sampling rate                    : 48.0 KHz
Resolution                       : 16 bits
Stream size                      : 380 MiB (12%)

Text
ID                               : 4
Format                           : Timed text
Codec ID                         : tx3g
Duration                         : 1h 58mn
Bit rate mode                    : Variable
Bit rate                         : 59 bps
Stream size                      : 51.4 KiB (0%)
English SRT                      : Yes

Release Date:2010

Language:English

Info Hash:E3FAF24B1D50404EEC61E04201E956EF0F3B668B